{
	"asset":{
		"generator":"Khronos glTF Blender I/O v5.0.21",
		"version":"2.0"
	},
	"scene":0,
	"scenes":[
		{
			"name":"Scene",
			"nodes":[
				0
			]
		}
	],
	"nodes":[
		{
			"mesh":0,
			"name":"Head",
			"rotation":[
				0.70710688829422,
				0,
				0,
				0.7071066498756409
			]
		}
	],
	"materials":[
		{
			"doubleSided":true,
			"name":"Gradient Atlas",
			"pbrMetallicRoughness":{
				"baseColorTexture":{
					"index":0
				},
				"metallicFactor":0
			}
		}
	],
	"meshes":[
		{
			"extras":{
				"targetNames":[
					"Face/Speaking",
					"Face/Blink",
					"Face/Sadge",
					"Face/Proud",
					"Face/Hearts",
					"Face/Squint",
					"Face/Angry",
					"Face/Eyebrow",
					"Face/Sleep",
					"Face/Happy",
					"Head/Hat",
					"Head/HairPoint",
					"Head/Ahoge",
					"Head/Bun",
					"Head/Buns",
					"Head/Ears",
					"Head/Glasses",
					"Body/Breathing"
				]
			},
			"name":"Body.002",
			"primitives":[
				{
					"attributes":{
						"POSITION":0,
						"NORMAL":1,
						"TEXCOORD_0":2,
						"COLOR_0":3,
						"COLOR_1":4,
						"COLOR_2":5
					},
					"indices":6,
					"material":0,
					"targets":[
						{
							"POSITION":7,
							"NORMAL":8
						},
						{
							"POSITION":9,
							"NORMAL":10
						},
						{
							"POSITION":11,
							"NORMAL":12
						},
						{
							"POSITION":13,
							"NORMAL":14
						},
						{
							"POSITION":15,
							"NORMAL":16
						},
						{
							"POSITION":17,
							"NORMAL":18
						},
						{
							"POSITION":19,
							"NORMAL":20
						},
						{
							"POSITION":21,
							"NORMAL":22
						},
						{
							"POSITION":23,
							"NORMAL":24
						},
						{
							"POSITION":25,
							"NORMAL":26
						},
						{
							"POSITION":27,
							"NORMAL":28
						},
						{
							"POSITION":29,
							"NORMAL":30
						},
						{
							"POSITION":31,
							"NORMAL":32
						},
						{
							"POSITION":33,
							"NORMAL":34
						},
						{
							"POSITION":35,
							"NORMAL":36
						},
						{
							"POSITION":37,
							"NORMAL":38
						},
						{
							"POSITION":39,
							"NORMAL":40
						},
						{
							"POSITION":41,
							"NORMAL":42
						}
					]
				}
			],
			"weights":[
				0,
				0,
				0,
				0,
				0,
				0,
				0,
				0,
				0,
				0,
				0,
				0,
				0,
				0,
				0,
				0,
				0,
				0
			]
		}
	],
	"textures":[
		{
			"sampler":0,
			"source":0
		}
	],
	"images":[
		{
			"mimeType":"image/png",
			"name":"Gradient Atlas.png",
			"uri":"textures/Gradient_Atlas.png.png"
		}
	],
	"accessors":[
		{
			"bufferView":0,
			"componentType":5126,
			"count":198,
			"max":[
				0.21083664894104004,
				0.14928533136844635,
				-0.7375558614730835
			],
			"min":[
				-0.21083664894104004,
				-0.29816415905952454,
				-1.1378759145736694
			],
			"type":"VEC3"
		},
		{
			"bufferView":1,
			"componentType":5126,
			"count":198,
			"type":"VEC3"
		},
		{
			"bufferView":2,
			"componentType":5126,
			"count":198,
			"type":"VEC2"
		},
		{
			"bufferView":3,
			"componentType":5121,
			"count":198,
			"normalized":true,
			"type":"VEC4"
		},
		{
			"bufferView":4,
			"componentType":5123,
			"count":198,
			"normalized":true,
			"type":"VEC4"
		},
		{
			"bufferView":5,
			"componentType":5123,
			"count":198,
			"normalized":true,
			"type":"VEC4"
		},
		{
			"bufferView":6,
			"componentType":5123,
			"count":294,
			"type":"SCALAR"
		},
		{
			"componentType":5126,
			"count":198,
			"max":[
				0.0027097761631011963,
				0.0003726854920387268,
				0.013552069664001465
			],
			"min":[
				-0.0027097761631011963,
				0,
				0
			],
			"sparse":{
				"count":13,
				"indices":{
					"bufferView":7,
					"componentType":5121
				},
				"values":{
					"bufferView":8
				}
			},
			"type":"VEC3"
		},
		{
			"bufferView":9,
			"componentType":5126,
			"count":198,
			"type":"VEC3"
		},
		{
			"componentType":5126,
			"count":198,
			"max":[
				0,
				0,
				0.0421140193939209
			],
			"min":[
				-1.1920928955078125e-07,
				-1.4901161193847656e-08,
				-0.021317899227142334
			],
			"sparse":{
				"count":30,
				"indices":{
					"bufferView":10,
					"componentType":5121
				},
				"values":{
					"bufferView":11
				}
			},
			"type":"VEC3"
		},
		{
			"bufferView":12,
			"componentType":5126,
			"count":198,
			"type":"VEC3"
		},
		{
			"componentType":5126,
			"count":198,
			"max":[
				0,
				0,
				0.03071415424346924
			],
			"min":[
				0,
				-4.616379737854004e-05,
				0
			],
			"sparse":{
				"count":8,
				"indices":{
					"bufferView":13,
					"componentType":5121
				},
				"values":{
					"bufferView":14
				}
			},
			"type":"VEC3"
		},
		{
			"bufferView":15,
			"componentType":5126,
			"count":198,
			"type":"VEC3"
		},
		{
			"componentType":5126,
			"count":198,
			"max":[
				0,
				7.376819849014282e-05,
				0.04831033945083618
			],
			"min":[
				0,
				0,
				-0.025368034839630127
			],
			"sparse":{
				"count":16,
				"indices":{
					"bufferView":16,
					"componentType":5121
				},
				"values":{
					"bufferView":17
				}
			},
			"type":"VEC3"
		},
		{
			"bufferView":18,
			"componentType":5126,
			"count":198,
			"type":"VEC3"
		},
		{
			"componentType":5126,
			"count":198,
			"max":[
				0,
				0,
				0
			],
			"min":[
				0,
				-0.030000001192092896,
				0
			],
			"sparse":{
				"count":16,
				"indices":{
					"bufferView":19,
					"componentType":5121
				},
				"values":{
					"bufferView":20
				}
			},
			"type":"VEC3"
		},
		{
			"bufferView":21,
			"componentType":5126,
			"count":198,
			"type":"VEC3"
		},
		{
			"componentType":5126,
			"count":198,
			"max":[
				0,
				0,
				0.04000002145767212
			],
			"min":[
				-5.427161079528825e-24,
				-7.450580596923828e-09,
				0
			],
			"sparse":{
				"count":41,
				"indices":{
					"bufferView":22,
					"componentType":5121
				},
				"values":{
					"bufferView":23
				}
			},
			"type":"VEC3"
		},
		{
			"bufferView":24,
			"componentType":5126,
			"count":198,
			"type":"VEC3"
		},
		{
			"componentType":5126,
			"count":198,
			"max":[
				4.477296818995825e-24,
				0,
				0.032455265522003174
			],
			"min":[
				-6.5124317367212e-24,
				0,
				-0.00528717041015625
			],
			"sparse":{
				"count":65,
				"indices":{
					"bufferView":25,
					"componentType":5121
				},
				"values":{
					"bufferView":26
				}
			},
			"type":"VEC3"
		},
		{
			"bufferView":27,
			"componentType":5126,
			"count":198,
			"type":"VEC3"
		},
		{
			"componentType":5126,
			"count":198,
			"max":[
				0,
				0,
				0.022693634033203125
			],
			"min":[
				0,
				0,
				-0.008970677852630615
			],
			"sparse":{
				"count":22,
				"indices":{
					"bufferView":28,
					"componentType":5121
				},
				"values":{
					"bufferView":29
				}
			},
			"type":"VEC3"
		},
		{
			"bufferView":30,
			"componentType":5126,
			"count":198,
			"type":"VEC3"
		},
		{
			"componentType":5126,
			"count":198,
			"max":[
				0,
				7.450580596923828e-09,
				0.054895877838134766
			],
			"min":[
				-7.033559561597442e-24,
				-7.450580596923828e-09,
				-0.0070497989654541016
			],
			"sparse":{
				"count":38,
				"indices":{
					"bufferView":31,
					"componentType":5121
				},
				"values":{
					"bufferView":32
				}
			},
			"type":"VEC3"
		},
		{
			"bufferView":33,
			"componentType":5126,
			"count":198,
			"type":"VEC3"
		},
		{
			"componentType":5126,
			"count":198,
			"max":[
				0.0040125176310539246,
				7.450580596923828e-09,
				0.054895877838134766
			],
			"min":[
				-0.0040125176310539246,
				-7.450580596923828e-09,
				-0.018732428550720215
			],
			"sparse":{
				"count":32,
				"indices":{
					"bufferView":34,
					"componentType":5121
				},
				"values":{
					"bufferView":35
				}
			},
			"type":"VEC3"
		},
		{
			"bufferView":36,
			"componentType":5126,
			"count":198,
			"type":"VEC3"
		},
		{
			"componentType":5126,
			"count":198,
			"max":[
				0,
				0,
				0
			],
			"min":[
				0,
				0,
				0
			],
			"sparse":{
				"count":1,
				"indices":{
					"bufferView":37,
					"componentType":5121
				},
				"values":{
					"bufferView":38
				}
			},
			"type":"VEC3"
		},
		{
			"bufferView":39,
			"componentType":5126,
			"count":198,
			"type":"VEC3"
		},
		{
			"componentType":5126,
			"count":198,
			"max":[
				0.01000000536441803,
				0.0008305758237838745,
				0.10000002384185791
			],
			"min":[
				-0.01000000536441803,
				-0.030000001192092896,
				-0.019999980926513672
			],
			"sparse":{
				"count":12,
				"indices":{
					"bufferView":40,
					"componentType":5121
				},
				"values":{
					"bufferView":41
				}
			},
			"type":"VEC3"
		},
		{
			"bufferView":42,
			"componentType":5126,
			"count":198,
			"type":"VEC3"
		},
		{
			"componentType":5126,
			"count":198,
			"max":[
				0,
				0,
				0
			],
			"min":[
				0,
				0,
				0
			],
			"sparse":{
				"count":1,
				"indices":{
					"bufferView":43,
					"componentType":5121
				},
				"values":{
					"bufferView":44
				}
			},
			"type":"VEC3"
		},
		{
			"bufferView":45,
			"componentType":5126,
			"count":198,
			"type":"VEC3"
		},
		{
			"componentType":5126,
			"count":198,
			"max":[
				0,
				0,
				0
			],
			"min":[
				0,
				0,
				0
			],
			"sparse":{
				"count":1,
				"indices":{
					"bufferView":46,
					"componentType":5121
				},
				"values":{
					"bufferView":47
				}
			},
			"type":"VEC3"
		},
		{
			"bufferView":48,
			"componentType":5126,
			"count":198,
			"type":"VEC3"
		},
		{
			"componentType":5126,
			"count":198,
			"max":[
				0,
				0,
				0
			],
			"min":[
				0,
				0,
				0
			],
			"sparse":{
				"count":1,
				"indices":{
					"bufferView":49,
					"componentType":5121
				},
				"values":{
					"bufferView":50
				}
			},
			"type":"VEC3"
		},
		{
			"bufferView":51,
			"componentType":5126,
			"count":198,
			"type":"VEC3"
		},
		{
			"componentType":5126,
			"count":198,
			"max":[
				0,
				0,
				0
			],
			"min":[
				0,
				0,
				0
			],
			"sparse":{
				"count":1,
				"indices":{
					"bufferView":52,
					"componentType":5121
				},
				"values":{
					"bufferView":53
				}
			},
			"type":"VEC3"
		},
		{
			"bufferView":54,
			"componentType":5126,
			"count":198,
			"type":"VEC3"
		},
		{
			"componentType":5126,
			"count":198,
			"max":[
				0,
				0,
				0
			],
			"min":[
				0,
				0,
				0
			],
			"sparse":{
				"count":1,
				"indices":{
					"bufferView":55,
					"componentType":5121
				},
				"values":{
					"bufferView":56
				}
			},
			"type":"VEC3"
		},
		{
			"bufferView":57,
			"componentType":5126,
			"count":198,
			"type":"VEC3"
		},
		{
			"componentType":5126,
			"count":198,
			"max":[
				0,
				0,
				0
			],
			"min":[
				0,
				0,
				0
			],
			"sparse":{
				"count":1,
				"indices":{
					"bufferView":58,
					"componentType":5121
				},
				"values":{
					"bufferView":59
				}
			},
			"type":"VEC3"
		},
		{
			"bufferView":60,
			"componentType":5126,
			"count":198,
			"type":"VEC3"
		}
	],
	"bufferViews":[
		{
			"buffer":0,
			"byteLength":2376,
			"byteOffset":0,
			"target":34962
		},
		{
			"buffer":0,
			"byteLength":2376,
			"byteOffset":2376,
			"target":34962
		},
		{
			"buffer":0,
			"byteLength":1584,
			"byteOffset":4752,
			"target":34962
		},
		{
			"buffer":0,
			"byteLength":792,
			"byteOffset":6336,
			"target":34962
		},
		{
			"buffer":0,
			"byteLength":1584,
			"byteOffset":7128,
			"target":34962
		},
		{
			"buffer":0,
			"byteLength":1584,
			"byteOffset":8712,
			"target":34962
		},
		{
			"buffer":0,
			"byteLength":588,
			"byteOffset":10296,
			"target":34963
		},
		{
			"buffer":0,
			"byteLength":13,
			"byteOffset":10884
		},
		{
			"buffer":0,
			"byteLength":156,
			"byteOffset":10900
		},
		{
			"buffer":0,
			"byteLength":2376,
			"byteOffset":11056,
			"target":34962
		},
		{
			"buffer":0,
			"byteLength":30,
			"byteOffset":13432
		},
		{
			"buffer":0,
			"byteLength":360,
			"byteOffset":13464
		},
		{
			"buffer":0,
			"byteLength":2376,
			"byteOffset":13824,
			"target":34962
		},
		{
			"buffer":0,
			"byteLength":8,
			"byteOffset":16200
		},
		{
			"buffer":0,
			"byteLength":96,
			"byteOffset":16208
		},
		{
			"buffer":0,
			"byteLength":2376,
			"byteOffset":16304,
			"target":34962
		},
		{
			"buffer":0,
			"byteLength":16,
			"byteOffset":18680
		},
		{
			"buffer":0,
			"byteLength":192,
			"byteOffset":18696
		},
		{
			"buffer":0,
			"byteLength":2376,
			"byteOffset":18888,
			"target":34962
		},
		{
			"buffer":0,
			"byteLength":16,
			"byteOffset":21264
		},
		{
			"buffer":0,
			"byteLength":192,
			"byteOffset":21280
		},
		{
			"buffer":0,
			"byteLength":2376,
			"byteOffset":21472,
			"target":34962
		},
		{
			"buffer":0,
			"byteLength":41,
			"byteOffset":23848
		},
		{
			"buffer":0,
			"byteLength":492,
			"byteOffset":23892
		},
		{
			"buffer":0,
			"byteLength":2376,
			"byteOffset":24384,
			"target":34962
		},
		{
			"buffer":0,
			"byteLength":65,
			"byteOffset":26760
		},
		{
			"buffer":0,
			"byteLength":780,
			"byteOffset":26828
		},
		{
			"buffer":0,
			"byteLength":2376,
			"byteOffset":27608,
			"target":34962
		},
		{
			"buffer":0,
			"byteLength":22,
			"byteOffset":29984
		},
		{
			"buffer":0,
			"byteLength":264,
			"byteOffset":30008
		},
		{
			"buffer":0,
			"byteLength":2376,
			"byteOffset":30272,
			"target":34962
		},
		{
			"buffer":0,
			"byteLength":38,
			"byteOffset":32648
		},
		{
			"buffer":0,
			"byteLength":456,
			"byteOffset":32688
		},
		{
			"buffer":0,
			"byteLength":2376,
			"byteOffset":33144,
			"target":34962
		},
		{
			"buffer":0,
			"byteLength":32,
			"byteOffset":35520
		},
		{
			"buffer":0,
			"byteLength":384,
			"byteOffset":35552
		},
		{
			"buffer":0,
			"byteLength":2376,
			"byteOffset":35936,
			"target":34962
		},
		{
			"buffer":0,
			"byteLength":1,
			"byteOffset":38312
		},
		{
			"buffer":0,
			"byteLength":12,
			"byteOffset":38316
		},
		{
			"buffer":0,
			"byteLength":2376,
			"byteOffset":38328,
			"target":34962
		},
		{
			"buffer":0,
			"byteLength":12,
			"byteOffset":40704
		},
		{
			"buffer":0,
			"byteLength":144,
			"byteOffset":40716
		},
		{
			"buffer":0,
			"byteLength":2376,
			"byteOffset":40860,
			"target":34962
		},
		{
			"buffer":0,
			"byteLength":1,
			"byteOffset":43236
		},
		{
			"buffer":0,
			"byteLength":12,
			"byteOffset":43240
		},
		{
			"buffer":0,
			"byteLength":2376,
			"byteOffset":43252,
			"target":34962
		},
		{
			"buffer":0,
			"byteLength":1,
			"byteOffset":45628
		},
		{
			"buffer":0,
			"byteLength":12,
			"byteOffset":45632
		},
		{
			"buffer":0,
			"byteLength":2376,
			"byteOffset":45644,
			"target":34962
		},
		{
			"buffer":0,
			"byteLength":1,
			"byteOffset":48020
		},
		{
			"buffer":0,
			"byteLength":12,
			"byteOffset":48024
		},
		{
			"buffer":0,
			"byteLength":2376,
			"byteOffset":48036,
			"target":34962
		},
		{
			"buffer":0,
			"byteLength":1,
			"byteOffset":50412
		},
		{
			"buffer":0,
			"byteLength":12,
			"byteOffset":50416
		},
		{
			"buffer":0,
			"byteLength":2376,
			"byteOffset":50428,
			"target":34962
		},
		{
			"buffer":0,
			"byteLength":1,
			"byteOffset":52804
		},
		{
			"buffer":0,
			"byteLength":12,
			"byteOffset":52808
		},
		{
			"buffer":0,
			"byteLength":2376,
			"byteOffset":52820,
			"target":34962
		},
		{
			"buffer":0,
			"byteLength":1,
			"byteOffset":55196
		},
		{
			"buffer":0,
			"byteLength":12,
			"byteOffset":55200
		},
		{
			"buffer":0,
			"byteLength":2376,
			"byteOffset":55212,
			"target":34962
		}
	],
	"samplers":[
		{
			"magFilter":9729,
			"minFilter":9987
		}
	],
	"buffers":[
		{
			"byteLength":57588,
			"uri":"Head.bin"
		}
	]
}
