{
	"asset":{
		"generator":"Khronos glTF Blender I/O v5.0.21",
		"version":"2.0"
	},
	"scene":0,
	"scenes":[
		{
			"name":"Scene",
			"nodes":[
				0
			]
		}
	],
	"nodes":[
		{
			"mesh":0,
			"name":"Standard",
			"rotation":[
				0.70710688829422,
				0,
				0,
				0.7071066498756409
			]
		}
	],
	"materials":[
		{
			"doubleSided":true,
			"name":"Gradient Atlas",
			"pbrMetallicRoughness":{
				"baseColorTexture":{
					"index":0
				},
				"metallicFactor":0
			}
		}
	],
	"meshes":[
		{
			"name":"Body",
			"primitives":[
				{
					"attributes":{
						"POSITION":0,
						"NORMAL":1,
						"TEXCOORD_0":2,
						"COLOR_0":3,
						"COLOR_1":4,
						"COLOR_2":5
					},
					"indices":6,
					"material":0
				}
			]
		}
	],
	"textures":[
		{
			"sampler":0,
			"source":0
		}
	],
	"images":[
		{
			"mimeType":"image/png",
			"name":"Gradient Atlas",
			"uri":"Gradient%20Atlas.png"
		}
	],
	"accessors":[
		{
			"bufferView":0,
			"componentType":5126,
			"count":1107,
			"max":[
				0.4623700976371765,
				0.14928533136844635,
				5.333760054782033e-05
			],
			"min":[
				-0.4623701870441437,
				-0.7493475675582886,
				-1.1378759145736694
			],
			"type":"VEC3"
		},
		{
			"bufferView":1,
			"componentType":5126,
			"count":1107,
			"type":"VEC3"
		},
		{
			"bufferView":2,
			"componentType":5126,
			"count":1107,
			"type":"VEC2"
		},
		{
			"bufferView":3,
			"componentType":5121,
			"count":1107,
			"normalized":true,
			"type":"VEC4"
		},
		{
			"bufferView":4,
			"componentType":5123,
			"count":1107,
			"normalized":true,
			"type":"VEC4"
		},
		{
			"bufferView":5,
			"componentType":5123,
			"count":1107,
			"normalized":true,
			"type":"VEC4"
		},
		{
			"bufferView":6,
			"componentType":5123,
			"count":1620,
			"type":"SCALAR"
		}
	],
	"bufferViews":[
		{
			"buffer":0,
			"byteLength":13284,
			"byteOffset":0,
			"target":34962
		},
		{
			"buffer":0,
			"byteLength":13284,
			"byteOffset":13284,
			"target":34962
		},
		{
			"buffer":0,
			"byteLength":8856,
			"byteOffset":26568,
			"target":34962
		},
		{
			"buffer":0,
			"byteLength":4428,
			"byteOffset":35424,
			"target":34962
		},
		{
			"buffer":0,
			"byteLength":8856,
			"byteOffset":39852,
			"target":34962
		},
		{
			"buffer":0,
			"byteLength":8856,
			"byteOffset":48708,
			"target":34962
		},
		{
			"buffer":0,
			"byteLength":3240,
			"byteOffset":57564,
			"target":34963
		}
	],
	"samplers":[
		{
			"magFilter":9729,
			"minFilter":9987
		}
	],
	"buffers":[
		{
			"byteLength":60804,
			"uri":"Plizard%20Standard.bin"
		}
	]
}
