{
	"asset":{
		"generator":"Khronos glTF Blender I/O v5.0.21",
		"version":"2.0"
	},
	"scene":0,
	"scenes":[
		{
			"name":"Scene",
			"nodes":[
				0
			]
		}
	],
	"nodes":[
		{
			"mesh":0,
			"name":"Standard",
			"rotation":[
				0.70710688829422,
				0,
				0,
				0.7071066498756409
			]
		}
	],
	"materials":[
		{
			"doubleSided":true,
			"name":"Gradient Atlas",
			"pbrMetallicRoughness":{
				"baseColorTexture":{
					"index":0
				},
				"metallicFactor":0
			}
		}
	],
	"meshes":[
		{
			"extras":{
				"targetNames":[
					"Face/Speaking",
					"Face/Blink",
					"Face/Sadge",
					"Face/Proud",
					"Face/Hearts",
					"Face/Squint",
					"Face/Angry",
					"Face/Eyebrow",
					"Face/Sleep",
					"Face/Happy",
					"Head/Hat",
					"Head/HairPoint",
					"Head/Ahoge",
					"Head/Bun",
					"Head/Buns",
					"Head/Ears",
					"Head/Glasses",
					"Body/Breathing"
				]
			},
			"name":"Body",
			"primitives":[
				{
					"attributes":{
						"POSITION":0,
						"NORMAL":1,
						"TEXCOORD_0":2,
						"COLOR_0":3,
						"COLOR_1":4,
						"COLOR_2":5
					},
					"indices":6,
					"material":0,
					"targets":[
						{
							"POSITION":7,
							"NORMAL":8
						},
						{
							"POSITION":9,
							"NORMAL":10
						},
						{
							"POSITION":11,
							"NORMAL":12
						},
						{
							"POSITION":13,
							"NORMAL":14
						},
						{
							"POSITION":15,
							"NORMAL":16
						},
						{
							"POSITION":17,
							"NORMAL":18
						},
						{
							"POSITION":19,
							"NORMAL":20
						},
						{
							"POSITION":21,
							"NORMAL":22
						},
						{
							"POSITION":23,
							"NORMAL":24
						},
						{
							"POSITION":25,
							"NORMAL":26
						},
						{
							"POSITION":27,
							"NORMAL":28
						},
						{
							"POSITION":29,
							"NORMAL":30
						},
						{
							"POSITION":31,
							"NORMAL":32
						},
						{
							"POSITION":33,
							"NORMAL":34
						},
						{
							"POSITION":35,
							"NORMAL":36
						},
						{
							"POSITION":37,
							"NORMAL":38
						},
						{
							"POSITION":39,
							"NORMAL":40
						},
						{
							"POSITION":41,
							"NORMAL":42
						}
					]
				}
			],
			"weights":[
				0,
				0,
				0,
				0,
				0,
				0,
				0,
				0,
				0,
				0,
				0,
				0,
				0,
				0,
				0,
				0,
				0,
				0
			]
		}
	],
	"textures":[
		{
			"sampler":0,
			"source":0
		}
	],
	"images":[
		{
			"mimeType":"image/png",
			"name":"Gradient Atlas.png",
			"uri":"textures/Gradient_Atlas.png.png"
		}
	],
	"accessors":[
		{
			"bufferView":0,
			"componentType":5126,
			"count":662,
			"max":[
				0.4623700976371765,
				0.14928533136844635,
				5.333760054782033e-05
			],
			"min":[
				-0.4623701870441437,
				-0.7493475675582886,
				-1.1378759145736694
			],
			"type":"VEC3"
		},
		{
			"bufferView":1,
			"componentType":5126,
			"count":662,
			"type":"VEC3"
		},
		{
			"bufferView":2,
			"componentType":5126,
			"count":662,
			"type":"VEC2"
		},
		{
			"bufferView":3,
			"componentType":5121,
			"count":662,
			"normalized":true,
			"type":"VEC4"
		},
		{
			"bufferView":4,
			"componentType":5123,
			"count":662,
			"normalized":true,
			"type":"VEC4"
		},
		{
			"bufferView":5,
			"componentType":5123,
			"count":662,
			"normalized":true,
			"type":"VEC4"
		},
		{
			"bufferView":6,
			"componentType":5123,
			"count":990,
			"type":"SCALAR"
		},
		{
			"componentType":5126,
			"count":662,
			"max":[
				0.0027097761631011963,
				0.0003726854920387268,
				0.013552069664001465
			],
			"min":[
				-0.0027097761631011963,
				0,
				0
			],
			"sparse":{
				"count":13,
				"indices":{
					"bufferView":7,
					"componentType":5123
				},
				"values":{
					"bufferView":8
				}
			},
			"type":"VEC3"
		},
		{
			"bufferView":9,
			"componentType":5126,
			"count":662,
			"type":"VEC3"
		},
		{
			"componentType":5126,
			"count":662,
			"max":[
				0,
				0,
				0.0421140193939209
			],
			"min":[
				-1.1920928955078125e-07,
				-1.4901161193847656e-08,
				-0.021317899227142334
			],
			"sparse":{
				"count":30,
				"indices":{
					"bufferView":10,
					"componentType":5123
				},
				"values":{
					"bufferView":11
				}
			},
			"type":"VEC3"
		},
		{
			"bufferView":12,
			"componentType":5126,
			"count":662,
			"type":"VEC3"
		},
		{
			"componentType":5126,
			"count":662,
			"max":[
				0,
				0,
				0.03071415424346924
			],
			"min":[
				0,
				-4.616379737854004e-05,
				0
			],
			"sparse":{
				"count":8,
				"indices":{
					"bufferView":13,
					"componentType":5123
				},
				"values":{
					"bufferView":14
				}
			},
			"type":"VEC3"
		},
		{
			"bufferView":15,
			"componentType":5126,
			"count":662,
			"type":"VEC3"
		},
		{
			"componentType":5126,
			"count":662,
			"max":[
				0,
				7.376819849014282e-05,
				0.04831033945083618
			],
			"min":[
				0,
				0,
				-0.025368034839630127
			],
			"sparse":{
				"count":16,
				"indices":{
					"bufferView":16,
					"componentType":5123
				},
				"values":{
					"bufferView":17
				}
			},
			"type":"VEC3"
		},
		{
			"bufferView":18,
			"componentType":5126,
			"count":662,
			"type":"VEC3"
		},
		{
			"componentType":5126,
			"count":662,
			"max":[
				0,
				0,
				0
			],
			"min":[
				0,
				-0.030000001192092896,
				0
			],
			"sparse":{
				"count":16,
				"indices":{
					"bufferView":19,
					"componentType":5123
				},
				"values":{
					"bufferView":20
				}
			},
			"type":"VEC3"
		},
		{
			"bufferView":21,
			"componentType":5126,
			"count":662,
			"type":"VEC3"
		},
		{
			"componentType":5126,
			"count":662,
			"max":[
				0,
				0,
				0.04000002145767212
			],
			"min":[
				-5.427161079528825e-24,
				-7.450580596923828e-09,
				0
			],
			"sparse":{
				"count":41,
				"indices":{
					"bufferView":22,
					"componentType":5123
				},
				"values":{
					"bufferView":23
				}
			},
			"type":"VEC3"
		},
		{
			"bufferView":24,
			"componentType":5126,
			"count":662,
			"type":"VEC3"
		},
		{
			"componentType":5126,
			"count":662,
			"max":[
				4.477296818995825e-24,
				0,
				0.032455265522003174
			],
			"min":[
				-6.5124317367212e-24,
				0,
				-0.00528717041015625
			],
			"sparse":{
				"count":65,
				"indices":{
					"bufferView":25,
					"componentType":5123
				},
				"values":{
					"bufferView":26
				}
			},
			"type":"VEC3"
		},
		{
			"bufferView":27,
			"componentType":5126,
			"count":662,
			"type":"VEC3"
		},
		{
			"componentType":5126,
			"count":662,
			"max":[
				0,
				0,
				0.022693634033203125
			],
			"min":[
				0,
				0,
				-0.008970677852630615
			],
			"sparse":{
				"count":22,
				"indices":{
					"bufferView":28,
					"componentType":5123
				},
				"values":{
					"bufferView":29
				}
			},
			"type":"VEC3"
		},
		{
			"bufferView":30,
			"componentType":5126,
			"count":662,
			"type":"VEC3"
		},
		{
			"componentType":5126,
			"count":662,
			"max":[
				0,
				7.450580596923828e-09,
				0.054895877838134766
			],
			"min":[
				-7.033559561597442e-24,
				-7.450580596923828e-09,
				-0.0070497989654541016
			],
			"sparse":{
				"count":38,
				"indices":{
					"bufferView":31,
					"componentType":5123
				},
				"values":{
					"bufferView":32
				}
			},
			"type":"VEC3"
		},
		{
			"bufferView":33,
			"componentType":5126,
			"count":662,
			"type":"VEC3"
		},
		{
			"componentType":5126,
			"count":662,
			"max":[
				0.0040125176310539246,
				7.450580596923828e-09,
				0.054895877838134766
			],
			"min":[
				-0.0040125176310539246,
				-7.450580596923828e-09,
				-0.018732428550720215
			],
			"sparse":{
				"count":32,
				"indices":{
					"bufferView":34,
					"componentType":5123
				},
				"values":{
					"bufferView":35
				}
			},
			"type":"VEC3"
		},
		{
			"bufferView":36,
			"componentType":5126,
			"count":662,
			"type":"VEC3"
		},
		{
			"componentType":5126,
			"count":662,
			"max":[
				0,
				0,
				0
			],
			"min":[
				0,
				0,
				0
			],
			"sparse":{
				"count":1,
				"indices":{
					"bufferView":37,
					"componentType":5121
				},
				"values":{
					"bufferView":38
				}
			},
			"type":"VEC3"
		},
		{
			"bufferView":39,
			"componentType":5126,
			"count":662,
			"type":"VEC3"
		},
		{
			"componentType":5126,
			"count":662,
			"max":[
				0.01000000536441803,
				0.0008305758237838745,
				0.10000002384185791
			],
			"min":[
				-0.01000000536441803,
				-0.030000001192092896,
				-0.019999980926513672
			],
			"sparse":{
				"count":12,
				"indices":{
					"bufferView":40,
					"componentType":5121
				},
				"values":{
					"bufferView":41
				}
			},
			"type":"VEC3"
		},
		{
			"bufferView":42,
			"componentType":5126,
			"count":662,
			"type":"VEC3"
		},
		{
			"componentType":5126,
			"count":662,
			"max":[
				0,
				0,
				0
			],
			"min":[
				0,
				0,
				0
			],
			"sparse":{
				"count":1,
				"indices":{
					"bufferView":43,
					"componentType":5121
				},
				"values":{
					"bufferView":44
				}
			},
			"type":"VEC3"
		},
		{
			"bufferView":45,
			"componentType":5126,
			"count":662,
			"type":"VEC3"
		},
		{
			"componentType":5126,
			"count":662,
			"max":[
				0,
				0,
				0
			],
			"min":[
				0,
				0,
				0
			],
			"sparse":{
				"count":1,
				"indices":{
					"bufferView":46,
					"componentType":5121
				},
				"values":{
					"bufferView":47
				}
			},
			"type":"VEC3"
		},
		{
			"bufferView":48,
			"componentType":5126,
			"count":662,
			"type":"VEC3"
		},
		{
			"componentType":5126,
			"count":662,
			"max":[
				0,
				0,
				0
			],
			"min":[
				0,
				0,
				0
			],
			"sparse":{
				"count":1,
				"indices":{
					"bufferView":49,
					"componentType":5121
				},
				"values":{
					"bufferView":50
				}
			},
			"type":"VEC3"
		},
		{
			"bufferView":51,
			"componentType":5126,
			"count":662,
			"type":"VEC3"
		},
		{
			"componentType":5126,
			"count":662,
			"max":[
				0,
				0,
				0
			],
			"min":[
				0,
				0,
				0
			],
			"sparse":{
				"count":1,
				"indices":{
					"bufferView":52,
					"componentType":5121
				},
				"values":{
					"bufferView":53
				}
			},
			"type":"VEC3"
		},
		{
			"bufferView":54,
			"componentType":5126,
			"count":662,
			"type":"VEC3"
		},
		{
			"componentType":5126,
			"count":662,
			"max":[
				0,
				0,
				0
			],
			"min":[
				0,
				0,
				0
			],
			"sparse":{
				"count":1,
				"indices":{
					"bufferView":55,
					"componentType":5121
				},
				"values":{
					"bufferView":56
				}
			},
			"type":"VEC3"
		},
		{
			"bufferView":57,
			"componentType":5126,
			"count":662,
			"type":"VEC3"
		},
		{
			"componentType":5126,
			"count":662,
			"max":[
				0.004547595977783203,
				0,
				0
			],
			"min":[
				-0.004547595977783203,
				0,
				-0.004614353179931641
			],
			"sparse":{
				"count":84,
				"indices":{
					"bufferView":58,
					"componentType":5123
				},
				"values":{
					"bufferView":59
				}
			},
			"type":"VEC3"
		},
		{
			"bufferView":60,
			"componentType":5126,
			"count":662,
			"type":"VEC3"
		}
	],
	"bufferViews":[
		{
			"buffer":0,
			"byteLength":7944,
			"byteOffset":0,
			"target":34962
		},
		{
			"buffer":0,
			"byteLength":7944,
			"byteOffset":7944,
			"target":34962
		},
		{
			"buffer":0,
			"byteLength":5296,
			"byteOffset":15888,
			"target":34962
		},
		{
			"buffer":0,
			"byteLength":2648,
			"byteOffset":21184,
			"target":34962
		},
		{
			"buffer":0,
			"byteLength":5296,
			"byteOffset":23832,
			"target":34962
		},
		{
			"buffer":0,
			"byteLength":5296,
			"byteOffset":29128,
			"target":34962
		},
		{
			"buffer":0,
			"byteLength":1980,
			"byteOffset":34424,
			"target":34963
		},
		{
			"buffer":0,
			"byteLength":26,
			"byteOffset":36404
		},
		{
			"buffer":0,
			"byteLength":156,
			"byteOffset":36432
		},
		{
			"buffer":0,
			"byteLength":7944,
			"byteOffset":36588,
			"target":34962
		},
		{
			"buffer":0,
			"byteLength":60,
			"byteOffset":44532
		},
		{
			"buffer":0,
			"byteLength":360,
			"byteOffset":44592
		},
		{
			"buffer":0,
			"byteLength":7944,
			"byteOffset":44952,
			"target":34962
		},
		{
			"buffer":0,
			"byteLength":16,
			"byteOffset":52896
		},
		{
			"buffer":0,
			"byteLength":96,
			"byteOffset":52912
		},
		{
			"buffer":0,
			"byteLength":7944,
			"byteOffset":53008,
			"target":34962
		},
		{
			"buffer":0,
			"byteLength":32,
			"byteOffset":60952
		},
		{
			"buffer":0,
			"byteLength":192,
			"byteOffset":60984
		},
		{
			"buffer":0,
			"byteLength":7944,
			"byteOffset":61176,
			"target":34962
		},
		{
			"buffer":0,
			"byteLength":32,
			"byteOffset":69120
		},
		{
			"buffer":0,
			"byteLength":192,
			"byteOffset":69152
		},
		{
			"buffer":0,
			"byteLength":7944,
			"byteOffset":69344,
			"target":34962
		},
		{
			"buffer":0,
			"byteLength":82,
			"byteOffset":77288
		},
		{
			"buffer":0,
			"byteLength":492,
			"byteOffset":77372
		},
		{
			"buffer":0,
			"byteLength":7944,
			"byteOffset":77864,
			"target":34962
		},
		{
			"buffer":0,
			"byteLength":130,
			"byteOffset":85808
		},
		{
			"buffer":0,
			"byteLength":780,
			"byteOffset":85940
		},
		{
			"buffer":0,
			"byteLength":7944,
			"byteOffset":86720,
			"target":34962
		},
		{
			"buffer":0,
			"byteLength":44,
			"byteOffset":94664
		},
		{
			"buffer":0,
			"byteLength":264,
			"byteOffset":94708
		},
		{
			"buffer":0,
			"byteLength":7944,
			"byteOffset":94972,
			"target":34962
		},
		{
			"buffer":0,
			"byteLength":76,
			"byteOffset":102916
		},
		{
			"buffer":0,
			"byteLength":456,
			"byteOffset":102992
		},
		{
			"buffer":0,
			"byteLength":7944,
			"byteOffset":103448,
			"target":34962
		},
		{
			"buffer":0,
			"byteLength":64,
			"byteOffset":111392
		},
		{
			"buffer":0,
			"byteLength":384,
			"byteOffset":111456
		},
		{
			"buffer":0,
			"byteLength":7944,
			"byteOffset":111840,
			"target":34962
		},
		{
			"buffer":0,
			"byteLength":1,
			"byteOffset":119784
		},
		{
			"buffer":0,
			"byteLength":12,
			"byteOffset":119788
		},
		{
			"buffer":0,
			"byteLength":7944,
			"byteOffset":119800,
			"target":34962
		},
		{
			"buffer":0,
			"byteLength":12,
			"byteOffset":127744
		},
		{
			"buffer":0,
			"byteLength":144,
			"byteOffset":127756
		},
		{
			"buffer":0,
			"byteLength":7944,
			"byteOffset":127900,
			"target":34962
		},
		{
			"buffer":0,
			"byteLength":1,
			"byteOffset":135844
		},
		{
			"buffer":0,
			"byteLength":12,
			"byteOffset":135848
		},
		{
			"buffer":0,
			"byteLength":7944,
			"byteOffset":135860,
			"target":34962
		},
		{
			"buffer":0,
			"byteLength":1,
			"byteOffset":143804
		},
		{
			"buffer":0,
			"byteLength":12,
			"byteOffset":143808
		},
		{
			"buffer":0,
			"byteLength":7944,
			"byteOffset":143820,
			"target":34962
		},
		{
			"buffer":0,
			"byteLength":1,
			"byteOffset":151764
		},
		{
			"buffer":0,
			"byteLength":12,
			"byteOffset":151768
		},
		{
			"buffer":0,
			"byteLength":7944,
			"byteOffset":151780,
			"target":34962
		},
		{
			"buffer":0,
			"byteLength":1,
			"byteOffset":159724
		},
		{
			"buffer":0,
			"byteLength":12,
			"byteOffset":159728
		},
		{
			"buffer":0,
			"byteLength":7944,
			"byteOffset":159740,
			"target":34962
		},
		{
			"buffer":0,
			"byteLength":1,
			"byteOffset":167684
		},
		{
			"buffer":0,
			"byteLength":12,
			"byteOffset":167688
		},
		{
			"buffer":0,
			"byteLength":7944,
			"byteOffset":167700,
			"target":34962
		},
		{
			"buffer":0,
			"byteLength":168,
			"byteOffset":175644
		},
		{
			"buffer":0,
			"byteLength":1008,
			"byteOffset":175812
		},
		{
			"buffer":0,
			"byteLength":7944,
			"byteOffset":176820,
			"target":34962
		}
	],
	"samplers":[
		{
			"magFilter":9729,
			"minFilter":9987
		}
	],
	"buffers":[
		{
			"byteLength":184764,
			"uri":"Standard.bin"
		}
	]
}
